<?xml version="1.0" encoding="UTF-8"?><svg id="G_Pay_Acceptance_Mark" xmlns="http://www.w3.org/2000/svg" viewBox="0 0 218.76 31.8"><defs><style>.cls-1{fill:#fabb05;}.cls-2{fill:#fff;}.cls-3{fill:#3c4043;}.cls-4{fill:#1434cb;}.cls-5{fill:#f79e1b;}.cls-6{fill:#ff5a00;}.cls-7{fill:#4285f4;}.cls-8{fill:#eb001b;}.cls-9{fill:#34a853;}.cls-10{fill:#e94235;}</style></defs><g><path class="cls-4" d="M25.72,24.07h-4.3l2.71-16.26h4.3l-2.71,16.26Z"/><path class="cls-4" d="M41.25,8.2c-.86-.33-2.18-.66-3.83-.66-4.23,0-7.2,2.25-7.2,5.42-.07,2.31,2.11,3.63,3.77,4.43,1.65,.79,2.25,1.32,2.25,2.05,0,1.12-1.32,1.59-2.58,1.59-1.72,0-2.64-.26-4.03-.86l-.59-.26-.59,3.63c.99,.46,2.84,.86,4.76,.86,4.49,0,7.4-2.18,7.47-5.55,0-1.85-1.12-3.3-3.57-4.43-1.52-.73-2.45-1.26-2.45-1.98,0-.66,.79-1.39,2.45-1.39,1.39-.07,2.45,.26,3.17,.59l.4,.2,.59-3.63h0Z"/><path class="cls-4" d="M46.93,18.38c.33-.93,1.72-4.56,1.72-4.56,0,.07,.33-.93,.59-1.59l.33,1.39s.79,3.9,.99,4.69c-.79,.07-2.78,.07-3.63,.07Zm5.29-10.57h-3.3c-.99,0-1.78,.26-2.25,1.32l-6.34,14.93h4.49s.73-1.98,.93-2.45h5.48c.13,.59,.53,2.45,.53,2.45h3.96l-3.5-16.26h0Z"/><path class="cls-4" d="M17.85,7.81l-4.16,11.1-.46-2.25c-.79-2.58-3.24-5.42-5.95-6.81l3.83,14.21h4.56L22.35,7.81h-4.49Z"/><path class="cls-4" d="M9.72,7.81H2.85l-.07,.33c5.35,1.32,8.92,4.63,10.37,8.52l-1.45-7.47c-.26-1.06-1.06-1.32-1.98-1.39Z"/></g><g><path class="cls-6" d="M89.89,5.91h-11.12V25.97h11.12V5.91Z"/><path class="cls-8" d="M79.49,15.97c0-4.06,1.89-7.67,4.84-10.06-2.17-1.67-4.89-2.72-7.84-2.72-7.06,0-12.73,5.72-12.73,12.78s5.67,12.78,12.73,12.78c2.95,0,5.67-1.06,7.84-2.72-2.95-2.33-4.84-6-4.84-10.06Z"/><path class="cls-5" d="M104.89,15.97c0,7.06-5.67,12.78-12.73,12.78-2.95,0-5.67-1.06-7.84-2.72,2.95-2.33,4.84-5.95,4.84-10.06s-1.89-7.67-4.84-10.06c2.17-1.67,4.89-2.72,7.84-2.72,7.06,0,12.73,5.72,12.73,12.78Z"/></g><g><path id="Base" class="cls-2" d="M150.96,2.19h-24.24c-7.58,0-13.77,6.2-13.77,13.77h0c0,7.58,6.2,13.77,13.77,13.77h24.24c7.58,0,13.77-6.2,13.77-13.77h0c0-7.58-6.2-13.77-13.77-13.77Z"/><path id="Outline" class="cls-3" d="M150.96,3.31c1.7,0,3.35,.34,4.91,1,1.51,.64,2.86,1.56,4.03,2.72,1.16,1.16,2.08,2.52,2.72,4.03,.66,1.56,1,3.21,1,4.91s-.34,3.35-1,4.91c-.64,1.51-1.56,2.86-2.72,4.03-1.16,1.16-2.52,2.08-4.03,2.72-1.56,.66-3.21,1-4.91,1h-24.24c-1.7,0-3.35-.34-4.91-1-1.51-.64-2.86-1.56-4.03-2.72-1.16-1.16-2.08-2.52-2.72-4.03-.66-1.56-1-3.21-1-4.91s.34-3.35,1-4.91c.64-1.51,1.56-2.86,2.72-4.03,1.16-1.16,2.52-2.08,4.03-2.72,1.56-.66,3.21-1,4.91-1h24.24m0-1.12h-24.24c-7.58,0-13.77,6.2-13.77,13.77h0c0,7.58,6.2,13.77,13.77,13.77h24.24c7.58,0,13.77-6.2,13.77-13.77h0c0-7.58-6.2-13.77-13.77-13.77h0Z"/><g id="G_Pay_Lockup"><g id="Pay_Typeface"><path id="Letter_p" class="cls-3" d="M137.64,16.95v4.17h-1.32V10.82h3.51c.89,0,1.65,.3,2.27,.89,.63,.59,.95,1.32,.95,2.17s-.32,1.6-.95,2.18c-.61,.59-1.37,.87-2.27,.87h-2.18Zm0-4.85v3.59h2.21c.52,0,.96-.18,1.31-.53,.35-.35,.53-.78,.53-1.26s-.18-.9-.53-1.25c-.34-.36-.78-.54-1.31-.54h-2.21Z"/><path id="Letter_a" class="cls-3" d="M146.49,13.84c.98,0,1.75,.26,2.31,.79,.56,.52,.85,1.24,.85,2.15v4.34h-1.26v-.98h-.06c-.54,.81-1.27,1.21-2.18,1.21-.78,0-1.43-.23-1.95-.69s-.79-1.03-.79-1.72c0-.73,.28-1.31,.83-1.74,.55-.43,1.29-.65,2.2-.65,.79,0,1.43,.14,1.94,.43v-.3c0-.46-.18-.85-.54-1.17-.36-.32-.79-.48-1.28-.48-.74,0-1.32,.31-1.75,.94l-1.16-.73c.64-.93,1.59-1.39,2.84-1.39Zm-1.71,5.11c0,.34,.14,.63,.44,.86,.29,.23,.63,.34,1.03,.34,.56,0,1.05-.21,1.49-.62s.65-.9,.65-1.45c-.41-.32-.98-.49-1.72-.49-.54,0-.98,.13-1.34,.39-.36,.27-.54,.59-.54,.97Z"/><path id="Letter_y" class="cls-3" d="M156.84,14.07l-4.41,10.14h-1.36l1.64-3.55-2.91-6.59h1.44l2.09,5.05h.03l2.04-5.05h1.44Z"/></g><g id="G_Mark"><path id="Blue_500" class="cls-7" d="M132.38,16.11c0-.43-.04-.84-.11-1.24h-5.54v2.27h3.19c-.13,.76-.55,1.4-1.18,1.83v1.47h1.9c1.11-1.03,1.75-2.54,1.75-4.34Z"/><path id="Green_500" class="cls-9" d="M128.73,18.97c-.53,.36-1.21,.57-2.01,.57-1.54,0-2.84-1.04-3.31-2.44h-1.96v1.52c.97,1.93,2.97,3.25,5.27,3.25,1.59,0,2.93-.52,3.91-1.43l-1.9-1.47Z"/><path id="Yellow_500" class="cls-1" d="M123.23,15.97c0-.39,.07-.77,.18-1.13v-1.52h-1.96c-.4,.8-.63,1.7-.63,2.65s.23,1.85,.63,2.65l1.96-1.52c-.12-.36-.18-.74-.18-1.13Z"/><path id="Red_500" class="cls-10" d="M126.73,12.41c.87,0,1.65,.3,2.26,.88l1.68-1.68c-1.02-.95-2.36-1.54-3.95-1.54-2.3,0-4.3,1.32-5.27,3.25l1.96,1.52c.47-1.4,1.77-2.44,3.31-2.44Z"/></g></g></g><g><path d="M212.11,2.06h-35.46c-.15,0-.3,0-.44,0-.12,0-.25,0-.37,0-.27,0-.54,.02-.81,.07-.27,.05-.53,.13-.77,.25-.24,.12-.47,.28-.66,.48-.19,.19-.35,.41-.48,.66-.13,.25-.21,.5-.25,.77-.05,.27-.06,.54-.07,.81,0,.12,0,.25,0,.37,0,.15,0,.3,0,.44V25.85c0,.15,0,.3,0,.44,0,.12,0,.25,0,.37,0,.27,.02,.54,.07,.81,.05,.27,.13,.53,.25,.77,.12,.24,.28,.47,.48,.66,.19,.19,.41,.35,.66,.48,.25,.13,.5,.21,.77,.25,.27,.05,.54,.06,.81,.07,.12,0,.25,0,.37,0,.15,0,.3,0,.44,0h35.46c.15,0,.3,0,.44,0,.12,0,.25,0,.37,0,.27,0,.54-.02,.81-.07,.27-.05,.52-.13,.77-.25,.24-.12,.46-.28,.66-.48,.19-.19,.35-.41,.48-.66,.13-.25,.21-.5,.25-.77,.05-.27,.06-.54,.07-.81,0-.12,0-.25,0-.37,0-.15,0-.3,0-.44V5.93c0-.15,0-.3,0-.44,0-.12,0-.25,0-.37,0-.27-.02-.54-.07-.81-.05-.27-.13-.53-.25-.77-.12-.24-.29-.46-.48-.66-.19-.19-.41-.35-.66-.48-.25-.13-.5-.21-.77-.25-.27-.05-.54-.06-.81-.07-.12,0-.25,0-.37,0-.15,0-.3,0-.44,0h0Z"/><path class="cls-2" d="M212.11,2.98h.44c.12,0,.24,0,.36,0,.21,0,.45,.02,.67,.06,.2,.04,.36,.09,.52,.17,.16,.08,.3,.18,.42,.31,.13,.13,.23,.27,.31,.43,.08,.16,.13,.32,.17,.52,.04,.22,.05,.47,.06,.67,0,.12,0,.23,0,.35,0,.15,0,.29,0,.44V25.85c0,.15,0,.29,0,.44,0,.12,0,.23,0,.35,0,.21-.02,.45-.06,.68-.03,.19-.09,.36-.17,.52-.08,.16-.18,.3-.31,.42-.13,.13-.27,.23-.42,.31-.16,.08-.32,.13-.51,.17-.23,.04-.48,.05-.67,.06-.12,0-.24,0-.36,0-.15,0-.29,0-.44,0h-35.47c-.14,0-.29,0-.43,0-.12,0-.24,0-.35,0-.19,0-.45-.02-.67-.06-.2-.04-.36-.09-.52-.17-.16-.08-.3-.18-.42-.31-.12-.12-.23-.27-.31-.42-.08-.16-.13-.32-.17-.52-.04-.23-.05-.47-.06-.67,0-.12,0-.24,0-.35V5.49c0-.12,0-.24,0-.35,0-.21,.02-.45,.06-.67,.03-.2,.09-.36,.17-.52,.08-.16,.18-.3,.31-.42,.12-.12,.27-.23,.42-.31,.16-.08,.32-.13,.52-.17,.23-.04,.47-.05,.67-.06,.12,0,.24,0,.35,0h35.9"/><g><g><path d="M184.57,11.36c.37-.46,.62-1.08,.55-1.72-.54,.03-1.2,.36-1.58,.82-.34,.4-.65,1.04-.57,1.65,.61,.05,1.22-.3,1.6-.75"/><path d="M185.12,12.24c-.88-.05-1.63,.5-2.05,.5s-1.07-.47-1.77-.46c-.91,.01-1.75,.53-2.21,1.34-.95,1.63-.25,4.06,.67,5.39,.45,.66,.99,1.38,1.7,1.36,.67-.03,.94-.44,1.75-.44s1.05,.44,1.76,.42c.74-.01,1.2-.66,1.65-1.32,.51-.75,.72-1.48,.74-1.52-.01-.01-1.42-.55-1.44-2.17-.01-1.36,1.11-2,1.16-2.04-.63-.94-1.62-1.04-1.96-1.07"/></g><g><path d="M192.8,10.4c1.92,0,3.25,1.32,3.25,3.25s-1.36,3.26-3.3,3.26h-2.12v3.38h-1.53V10.4h3.71Zm-2.17,5.22h1.76c1.34,0,2.1-.72,2.1-1.97s-.76-1.96-2.09-1.96h-1.77v3.93Z"/><path d="M196.46,18.24c0-1.26,.97-2.04,2.68-2.13l1.97-.12v-.55c0-.8-.54-1.28-1.45-1.28-.86,0-1.39,.41-1.52,1.06h-1.4c.08-1.3,1.19-2.26,2.97-2.26s2.86,.93,2.86,2.37v4.97h-1.42v-1.19h-.03c-.42,.8-1.33,1.31-2.27,1.31-1.41,0-2.4-.88-2.4-2.17Zm4.65-.65v-.57l-1.77,.11c-.88,.06-1.38,.45-1.38,1.07s.52,1.04,1.32,1.04c1.03,0,1.84-.71,1.84-1.65Z"/><path d="M203.92,22.94v-1.2c.11,.03,.36,.03,.48,.03,.69,0,1.06-.29,1.28-1.03,0-.01,.13-.44,.13-.45l-2.6-7.22h1.6l1.82,5.87h.03l1.82-5.87h1.56l-2.7,7.58c-.62,1.75-1.33,2.31-2.82,2.31-.12,0-.49-.01-.6-.03Z"/></g></g></g></svg>